<svg width="981" height="617" viewBox="0 0 981 617" fill="none" xmlns="http://www.w3.org/2000/svg">
<path d="M1.38866 9.06572C-0.988649 5.0662 1.8936 0 6.54632 0H178.586C180.703 0 182.663 1.115 183.744 2.93429L548.111 615.934C550.489 619.934 547.606 625 542.954 625H370.914C368.797 625 366.837 623.885 365.756 622.066L1.38866 9.06572Z" fill="#FF8C42"/>
<path d="M217.389 9.06572C215.011 5.0662 217.894 0 222.546 0H394.586C396.703 0 398.663 1.115 399.744 2.93429L764.111 615.934C766.489 619.934 763.606 625 758.954 625H586.914C584.797 625 582.837 623.885 581.756 622.066L217.389 9.06572Z" fill="#FF8C42"/>
<path d="M433.389 9.06572C431.011 5.0662 433.894 0 438.546 0H610.586C612.703 0 614.663 1.115 615.744 2.93429L980.111 615.934C982.489 619.934 979.606 625 974.954 625H802.914C800.797 625 798.837 623.885 797.756 622.066L433.389 9.06572Z" fill="#FF8C42"/>
</svg>
