<svg width="146" height="146" viewBox="0 0 146 146" fill="none" xmlns="http://www.w3.org/2000/svg">
<path d="M70.1601 52.4616L50 60.6527V80.846C50 91.6652 72.5 102 72.5 102C72.5 102 95 91.6652 95 80.846V60.6527L74.8399 52.4616C74.0985 52.1569 73.3032 52 72.5 52C71.6968 52 70.9015 52.1569 70.1601 52.4616Z" stroke="#0D0D0D" stroke-width="4" stroke-linecap="round" stroke-linejoin="round"/>
<path d="M62 76.3113L70.4338 84L84 68" stroke="#0D0D0D" stroke-width="4" stroke-linecap="round" stroke-linejoin="round"/>
<path d="M121.562 59.0109L77.8094 20.0221C76.348 18.7197 74.4582 18 72.5 18C70.5418 18 68.652 18.7197 67.1906 20.0221L23.438 59.0109C20.5063 61.6238 22.3571 66.4759 26.2879 66.4759H31.8839V111.798C31.8846 113.443 32.5392 115.021 33.7038 116.184C34.8684 117.347 36.4475 118 38.0941 118H106.906C108.552 118 110.132 117.347 111.296 116.184C112.461 115.021 113.115 113.443 113.116 111.798V66.4732H118.712C122.643 66.4732 124.494 61.621 121.562 59.0082V59.0109Z" stroke="#0D0D0D" stroke-width="4" stroke-linecap="round" stroke-linejoin="round"/>
</svg>
