<svg width="112" height="84" viewBox="0 0 112 84" fill="none" xmlns="http://www.w3.org/2000/svg">
<path fill-rule="evenodd" clip-rule="evenodd" d="M35.0092 58.3784C32.3757 58.3784 30.4978 55.8318 31.2833 53.3257L34.6807 42.4866H41.7959C43.3412 42.4866 44.7411 43.3955 45.366 44.8046L46.7777 47.9876V54.4866C46.7777 56.636 45.03 58.3784 42.8742 58.3784H35.0092ZM44.9886 48.8795V54.4866C44.9886 55.6508 44.0419 56.5947 42.8742 56.5947H39.2138L37.2397 48.8795H44.9886ZM36.7833 47.0957H44.4259L43.7297 45.5259C43.3912 44.7627 42.633 44.2704 41.7959 44.2704H36.0604L36.7833 47.0957ZM35.0149 47.4008L32.991 53.8578C32.5656 55.2152 33.5827 56.5947 35.0092 56.5947H37.3673L35.0149 47.4008Z" fill="#FF8C42"/>
<path d="M88.3816 58.3784V41.7731H90.9007C91.6918 41.7731 92.358 42.4165 92.358 43.226V58.3784H88.3816Z" fill="#EEEEEE"/>
<path d="M71.9354 58.3784V41.7731H75.8494C80.492 41.7731 84.1145 45.53 84.1145 50.138C84.1145 54.6215 80.492 58.3784 75.8494 58.3784H71.9354ZM75.8494 54.4762C78.306 54.4762 80.2006 52.4628 80.2006 50.138C80.2006 47.6887 78.306 45.8206 75.8494 45.8206V54.4762Z" fill="#EEEEEE"/>
<path d="M50.2438 58.3784V41.7731H53.3666C53.783 41.7731 54.1994 41.9599 54.47 42.2712L63.1932 52.3797V41.7731H65.6915C66.5034 41.7731 67.1488 42.4165 67.1488 43.226V58.3784H63.1516L54.1994 48.0001V58.3784H50.2438Z" fill="#EEEEEE"/>
<path d="M22.0039 58.3784C17.6319 58.3784 13.8845 54.7668 13.8845 50.4286C13.8845 45.6753 17.507 41.7731 22.2746 41.7731C24.6063 41.7731 26.6257 42.6449 28.0831 44.2224L26.1885 46.1112C25.7513 46.5471 25.0435 46.6924 24.4606 46.2565C23.7319 45.9659 23.0032 45.6753 22.1288 45.6753C19.8179 45.6753 17.9442 47.5434 17.9442 49.8682C17.9442 52.2552 19.6722 54.4969 22.2746 54.4969C23.0032 54.4969 23.8776 54.1856 24.4606 53.895C25.0435 53.4591 25.7513 53.6044 26.1885 54.0403L28.0831 55.9291C26.6257 57.5274 24.4606 58.3784 22.0039 58.3784Z" fill="#EEEEEE"/>
<path d="M0 58.4822V54.5177H5.10066C6.03752 54.5177 6.74536 53.9573 6.787 53.044V52.8779C6.74536 51.9646 6.09997 51.4665 5.1423 51.4665H4.99656C2.85221 51.4665 1.06177 50.4079 0.312285 48.5398C0.104095 48.0208 0 47.4397 0 46.8377V46.7754C0 44.0563 2.22764 41.8353 4.95493 41.8353H8.63989C9.43102 41.8353 10.0972 42.4996 10.0972 43.2883L10.1389 45.5923H5.0382C4.10135 45.5923 3.31022 45.8414 3.26859 46.7754V46.9415C3.31022 47.8548 4.05971 48.2492 4.99656 48.2492H5.1423C7.59894 48.2492 9.16037 49.3908 9.82658 51.2796C10.0139 51.8193 10.1389 52.3797 10.1389 52.9817C10.1389 53.0024 10.1389 53.0024 10.118 53.0232H10.1389C10.2221 55.7631 7.89041 58.4822 5.16312 58.4822H0Z" fill="#EEEEEE"/>
<path d="M84.5973 76.2162V63.2433H91.2171C91.8352 63.2433 92.3557 63.746 92.3557 64.3784V66.3244H87.6877V68.1892H92.3557V71.2703H87.6877V73.1352H92.3557V76.2162H84.5973Z" fill="white"/>
<path d="M71.0365 76.2162V63.2433H73.0046C73.6389 63.2433 74.1431 63.746 74.1431 64.3622V73.1189H78.6647V76.2162H71.0365Z" fill="white"/>
<path d="M59.1108 76.1676C56.1018 76.1676 53.7271 73.6216 53.7271 70.6217V63.2433H55.6789C56.297 63.2433 56.8012 63.746 56.8012 64.3784V70.6541C56.8012 71.9514 57.8096 73.0541 59.1108 73.1027C60.4771 73.1514 61.5993 72.0649 61.5993 70.7027V63.2433H63.5511C64.1854 63.2433 64.6897 63.746 64.6897 64.3784V70.7027C64.6897 73.7514 62.1849 76.1676 59.1108 76.1676Z" fill="white"/>
<path d="M38.2762 76.2162V63.2433H41.334C44.961 63.2433 47.7911 66.1784 47.7911 69.7784C47.7911 73.2811 44.961 76.2162 41.334 76.2162H38.2762ZM41.334 73.1676C43.2532 73.1676 44.7333 71.5946 44.7333 69.7784C44.7333 67.8649 43.2532 66.4054 41.334 66.4054V73.1676Z" fill="white"/>
<path d="M25.8272 63.2433C29.4217 63.2433 32.3331 66.146 32.3331 69.7298C32.3331 73.3135 29.4217 76.2162 25.8272 76.2162C22.2327 76.2162 19.3213 73.3135 19.3213 69.7298C19.3213 66.146 22.2327 63.2433 25.8272 63.2433ZM25.8272 73.1189C27.6977 73.1189 29.2266 71.6108 29.2266 69.7298C29.2266 67.8649 27.6977 66.3406 25.8272 66.3406C23.9405 66.3406 22.4278 67.8649 22.4278 69.7298C22.4278 71.6108 23.9405 73.1189 25.8272 73.1189Z" fill="white"/>
<path d="M0.178913 76.2162V63.2433H2.9602C3.07406 63.2433 3.18791 63.2919 3.26924 63.3892L6.78245 67.4595L10.2957 63.3892C10.377 63.2919 10.4908 63.2433 10.621 63.2433H13.386V76.2162H10.2957V68.1081L8.83182 69.8271L7.64448 71.1892C7.18907 71.7081 6.37582 71.7081 5.92041 71.1892L3.26924 68.1081V76.2162H0.178913Z" fill="white"/>
<path fill-rule="evenodd" clip-rule="evenodd" d="M102.078 46.7028C102.797 46.7028 103.379 47.2836 103.379 48.0001V82.7027C103.379 83.4192 102.797 84 102.078 84C101.36 84 100.777 83.4192 100.777 82.7027V48.0001C100.777 47.2836 101.36 46.7028 102.078 46.7028Z" fill="#FF8C42"/>
<path fill-rule="evenodd" clip-rule="evenodd" d="M45.2021 0.908107C45.8669 -0.0490601 47.1841 -0.287656 48.1442 0.375189L111.089 43.8345C112.049 44.4974 112.289 45.8107 111.624 46.7678C110.959 47.725 109.642 47.9636 108.682 47.3008L45.7366 3.8414C44.7766 3.17855 44.5372 1.86527 45.2021 0.908107Z" fill="#FF8C42"/>
</svg>
