<svg width="49" height="27" viewBox="0 0 49 27" fill="none" xmlns="http://www.w3.org/2000/svg">
<path fill-rule="evenodd" clip-rule="evenodd" d="M19.6 1.76087C19.6 0.788368 20.5402 0 21.7 0H46.9C48.0598 0 49 0.788368 49 1.76087C49 2.73337 48.0598 3.52174 46.9 3.52174H21.7C20.5402 3.52174 19.6 2.73337 19.6 1.76087ZM0 13.5C0 12.5275 0.940202 11.7391 2.1 11.7391H46.9C48.0598 11.7391 49 12.5275 49 13.5C49 14.4725 48.0598 15.2609 46.9 15.2609H2.1C0.940202 15.2609 0 14.4725 0 13.5ZM0 25.2391C0 24.2666 0.940202 23.4783 2.1 23.4783H27.3C28.4598 23.4783 29.4 24.2666 29.4 25.2391C29.4 26.2116 28.4598 27 27.3 27H2.1C0.940202 27 0 26.2116 0 25.2391Z" fill="#A6A6A6"/>
<path fill-rule="evenodd" clip-rule="evenodd" d="M0 1.76087C0 0.788368 0.940202 0 2.1 0H10.5C11.6598 0 12.6 0.788368 12.6 1.76087C12.6 2.73337 11.6598 3.52174 10.5 3.52174H2.1C0.940202 3.52174 0 2.73337 0 1.76087ZM36.4 25.2391C36.4 24.2666 37.3402 23.4783 38.5 23.4783H46.9C48.0598 23.4783 49 24.2666 49 25.2391C49 26.2116 48.0598 27 46.9 27H38.5C37.3402 27 36.4 26.2116 36.4 25.2391Z" fill="#FF8C42"/>
</svg>
