<svg width="113" height="101" viewBox="0 0 113 101" fill="none" xmlns="http://www.w3.org/2000/svg">
<path d="M9.19957 53.1568C5.14101 50.8818 5.10401 45.0532 9.13338 42.7268L12.5705 40.7424C14.4033 39.6842 16.6581 39.6699 18.5043 40.7048L67.4607 68.1472C71.5193 70.4223 71.5563 76.2508 67.5269 78.5772L64.0898 80.5616C62.2569 81.6198 60.0022 81.6341 58.156 80.5993L9.19957 53.1568Z" fill="#FF8C42"/>
<path d="M27.2305 42.7466C23.172 40.4716 23.135 34.643 27.1643 32.3167L30.6014 30.3323C32.4343 29.2741 34.6891 29.2597 36.5352 30.2946L85.4917 57.7371C89.5502 60.0121 89.5872 65.8407 85.5579 68.167L82.1208 70.1514C80.2879 71.2096 78.0331 71.2239 76.187 70.1891L27.2305 42.7466Z" fill="#FF8C42"/>
<path d="M45.2615 32.3365C41.2029 30.0614 41.1659 24.2328 45.1953 21.9065L48.6324 19.9221C50.4652 18.8639 52.72 18.8496 54.5662 19.8844L103.523 47.3269C107.581 49.6019 107.618 55.4305 103.589 57.7568L100.152 59.7413C98.3189 60.7995 96.0641 60.8138 94.2179 59.7789L45.2615 32.3365Z" fill="#FF8C42"/>
</svg>
