<svg width="600" height="723" viewBox="0 0 600 723" fill="none" xmlns="http://www.w3.org/2000/svg">
<path d="M-15.9343 980.111C-19.9338 982.489 -25 979.606 -25 974.954L-25 802.914C-25 800.797 -23.885 798.837 -22.0657 797.756L590.934 433.389C594.934 431.011 600 433.894 600 438.546L600 610.586C600 612.703 598.885 614.663 597.066 615.744L-15.9343 980.111Z" fill="#FF8C42"/>
<path d="M-15.9343 764.111C-19.9338 766.489 -25 763.606 -25 758.954L-25 586.914C-25 584.797 -23.885 582.837 -22.0657 581.756L590.934 217.389C594.934 215.011 600 217.894 600 222.546L600 394.586C600 396.703 598.885 398.663 597.066 399.744L-15.9343 764.111Z" fill="#FF8C42"/>
<path d="M-15.9343 548.111C-19.9338 550.489 -25 547.606 -25 542.954L-25 370.914C-25 368.797 -23.885 366.837 -22.0657 365.756L590.934 1.38864C594.934 -0.988675 600 1.89359 600 6.5463L600 178.586C600 180.703 598.885 182.663 597.066 183.744L-15.9343 548.111Z" fill="#FF8C42"/>
</svg>
