<svg width="111" height="112" viewBox="0 0 111 112" fill="none" xmlns="http://www.w3.org/2000/svg">
<path d="M82.3115 9.6958C74.1676 4.96904 64.9161 2.4861 55.5 2.50006C25.9519 2.50006 2 26.452 2 56C2 85.5481 25.9519 109.5 55.5 109.5C85.048 109.5 109 85.5481 109 56C109 46.2978 106.416 37.1948 101.9 29.3517" stroke="#FF8C42" stroke-width="4" stroke-linecap="round" stroke-linejoin="round"/>
<path d="M76.7665 34.7339C76.7665 34.7339 67.7036 58.9292 63.5253 63.1076C61.5186 65.1143 58.7969 66.2416 55.9591 66.2416C53.1212 66.2416 50.3995 65.1143 48.3928 63.1076C46.3861 61.1009 45.2588 58.3793 45.2588 55.5414C45.2588 52.7035 46.3861 49.9818 48.3928 47.9751C52.5712 43.7968 76.7665 34.7339 76.7665 34.7339Z" stroke="#FF8C42" stroke-width="4" stroke-linejoin="round"/>
</svg>
